<svg width="41" height="37" viewBox="0 0 41 37" fill="none" xmlns="http://www.w3.org/2000/svg">
<path d="M35.3891 9.63347C29.8808 9.14066 24.3393 8.88678 18.8144 8.88678C15.5392 8.88678 12.264 9.03612 8.98874 9.3348L5.61426 9.63347M14.7121 8.12516L15.076 6.16883C15.3407 4.75012 15.5392 3.68982 18.3347 3.68982H22.6686C25.4642 3.68982 25.6792 4.80985 25.9273 6.18376L26.2912 8.12516M31.8327 14.3526L30.7575 29.3909C30.5755 31.7355 30.4266 33.5574 25.8115 33.5574H15.1918C10.5767 33.5574 10.4279 31.7355 10.2459 29.3909L9.1707 14.3526M17.7392 25.3438H23.2476M16.3663 19.3703H24.6371" stroke="black" stroke-width="2" stroke-linecap="round" stroke-linejoin="round"/>
</svg>
