<svg width="44" height="44" viewBox="0 0 44 44" fill="none" xmlns="http://www.w3.org/2000/svg">
<path d="M16.18 16C16.6502 14.6633 17.5783 13.5362 18.7999 12.8183C20.0215 12.1003 21.4578 11.8379 22.8544 12.0774C24.2509 12.317 25.5176 13.043 26.4302 14.1271C27.3427 15.2111 27.8421 16.583 27.84 18C27.84 22 21.84 24 21.84 24M22 32H22.02M42 22C42 33.0457 33.0457 42 22 42C10.9543 42 2 33.0457 2 22C2 10.9543 10.9543 2 22 2C33.0457 2 42 10.9543 42 22Z" stroke="white" stroke-width="4" stroke-linecap="round" stroke-linejoin="round"/>
</svg>
