<svg width="41" height="37" viewBox="0 0 41 37" fill="none" xmlns="http://www.w3.org/2000/svg">
<path d="M35.6718 18.6236C35.6718 26.0465 29.0065 32.064 20.7844 32.064C12.5623 32.064 5.89697 26.0465 5.89697 18.6236C5.89697 11.2006 12.5623 5.18317 20.7844 5.18317C29.0065 5.18317 35.6718 11.2006 35.6718 18.6236Z" fill="black" fill-opacity="0.15"/>
<path d="M29.0552 20.117C28.2888 18.6178 26.987 17.3773 25.3459 16.5826C23.7048 15.7879 21.8133 15.4819 19.9564 15.7107C16.9216 16.0848 14.8064 18.0436 12.5136 19.8461M12.5136 15.6368V20.117H17.4761M35.6718 18.6236C35.6718 26.0465 29.0065 32.064 20.7844 32.064C12.5623 32.064 5.89697 26.0465 5.89697 18.6236C5.89697 11.2006 12.5623 5.18317 20.7844 5.18317C29.0065 5.18317 35.6718 11.2006 35.6718 18.6236Z" stroke="black" stroke-width="2" stroke-linecap="round" stroke-linejoin="round"/>
</svg>
